<?xml version="1.0" standalone="no"?>
<!DOCTYPE svg PUBLIC "-//W3C//DTD SVG 20010904//EN"
 "http://www.w3.org/TR/2001/REC-SVG-20010904/DTD/svg10.dtd">
<svg version="1.0" xmlns="http://www.w3.org/2000/svg"
 width="658.000000pt" height="658.000000pt" viewBox="0 0 658.000000 658.000000"
 preserveAspectRatio="xMidYMid meet">
<metadata>
Created by potrace 1.11, written by Peter Selinger 2001-2013
</metadata>
<g transform="translate(0.000000,658.000000) scale(0.100000,-0.100000)"
fill="#000000" stroke="none">
<path d="M3173 5774 c-52 -19 -99 -65 -125 -122 -20 -44 -23 -108 -13 -327 1
-38 6 -153 9 -255 8 -196 16 -248 48 -292 11 -16 17 -29 14 -29 -3 -1 -9 -2
-13 -3 -5 -1 -30 -5 -58 -10 -27 -4 -60 -10 -72 -13 -22 -5 -22 -4 -7 25 8 17
17 53 21 79 5 44 -7 87 -111 399 -64 192 -126 363 -138 380 -97 136 -312 121
-388 -26 -43 -84 -40 -98 85 -478 118 -357 142 -411 198 -441 28 -15 36 -31
15 -31 -21 0 -253 -118 -328 -167 -213 -140 -391 -312 -527 -510 l-50 -72 -49
35 c-71 51 -244 131 -319 148 -256 57 -442 48 -663 -33 -304 -111 -557 -377
-651 -685 -38 -122 -46 -178 -46 -321 0 -144 7 -194 40 -309 51 -177 136 -317
275 -456 171 -171 304 -242 572 -307 13 -2 84 -7 158 -9 194 -5 342 27 513
111 39 19 72 33 72 32 1 -1 21 -38 45 -82 88 -163 187 -294 329 -436 150 -149
312 -263 513 -359 94 -45 109 -56 157 -115 100 -126 267 -235 431 -281 99 -28
300 -26 400 5 177 53 330 158 439 299 18 23 37 42 43 42 19 0 219 100 298 150
274 170 528 439 661 702 l29 57 66 -29 c153 -69 287 -98 454 -98 263 -1 495
84 698 256 37 31 77 68 88 82 12 14 32 36 44 50 88 99 177 273 216 422 24 94
29 139 28 288 0 219 -54 395 -178 580 -198 299 -540 482 -898 481 -195 -1
-387 -54 -552 -154 l-69 -41 -21 29 c-140 193 -257 318 -406 433 -30 23 -60
46 -66 51 -5 4 -21 14 -35 21 -13 7 -26 16 -29 19 -15 20 -279 155 -323 167
l-28 6 45 46 c44 44 47 51 161 392 87 263 115 360 115 399 0 122 -100 221
-223 221 -72 0 -153 -41 -188 -95 -14 -22 -75 -186 -135 -365 -94 -281 -109
-334 -109 -390 0 -36 4 -76 9 -89 8 -22 7 -23 -35 -17 -24 4 -66 9 -94 12 -27
4 -52 8 -54 10 -2 1 7 20 20 41 22 35 24 48 23 168 -1 125 -11 431 -19 582 -6
103 -50 179 -129 220 -43 22 -133 26 -183 7z"/>
</g>
</svg>
